<svg width="70" height="70" viewBox="0 0 70 70" fill="none" xmlns="http://www.w3.org/2000/svg">
<path d="M0.333984 8C0.333984 3.58172 3.91571 0 8.33398 0H61.334C65.7523 0 69.334 3.58172 69.334 8V62C69.334 66.4183 65.7523 70 61.334 70H8.33398C3.9157 70 0.333984 66.4183 0.333984 62V8Z" fill="white"/>
<path d="M16.209 36.7943L25.165 45.7504L27.424 43.4753L18.484 34.5353M51.1839 24.2495L34.2332 41.2163L27.5682 34.5353L25.2772 36.7943L34.2332 45.7504L53.459 26.5246M44.3908 26.5246L42.1318 24.2495L31.9581 34.4232L34.2332 36.6822L44.3908 26.5246Z" fill="#1D6E4F"/>
</svg>
