<svg width="20" height="20" viewBox="0 0 20 20" fill="none" xmlns="http://www.w3.org/2000/svg">
<path d="M4.16667 9.16675H10.8333V10.8334H4.16667V13.3334L0 10.0001L4.16667 6.66675V9.16675ZM3.33333 15.0001H5.59C6.55224 15.8487 7.73891 16.4016 9.00761 16.5925C10.2763 16.7834 11.5731 16.6042 12.7425 16.0763C13.9119 15.5485 14.9041 14.6944 15.6001 13.6166C16.296 12.5388 16.6663 11.2831 16.6663 10.0001C16.6663 8.7171 16.296 7.46137 15.6001 6.38357C14.9041 5.30577 13.9119 4.4517 12.7425 3.92383C11.5731 3.39596 10.2763 3.21673 9.00761 3.40763C7.73891 3.59854 6.55224 4.15147 5.59 5.00008H3.33333C4.10888 3.9644 5.11528 3.12384 6.27256 2.5452C7.42984 1.96656 8.70612 1.66578 10 1.66675C14.6025 1.66675 18.3333 5.39758 18.3333 10.0001C18.3333 14.6026 14.6025 18.3334 10 18.3334C8.70612 18.3344 7.42984 18.0336 6.27256 17.455C5.11528 16.8763 4.10888 16.0358 3.33333 15.0001Z" fill="black"/>
</svg>
