<svg width="69" height="70" viewBox="0 0 69 70" fill="none" xmlns="http://www.w3.org/2000/svg">
<path d="M0 8C0 3.58172 3.58172 0 8 0H61C65.4183 0 69 3.58172 69 8V62C69 66.4183 65.4183 70 61 70H8C3.58172 70 0 66.4183 0 62V8Z" fill="white"/>
<path d="M51.9998 31.7621H40.3228L45.0418 26.9053C40.34 22.2551 32.7275 22.0829 28.0257 26.733C23.3239 31.4004 23.3239 38.9267 28.0257 43.6113C32.7275 48.2614 40.34 48.2614 45.0418 43.6113C47.3841 41.2862 48.5552 38.5823 48.5552 35.1722H51.9998C51.9998 38.5823 50.4842 43.0085 47.453 46.0053C41.4078 51.9988 31.5908 51.9988 25.5457 46.0053C19.5177 40.029 19.4661 30.3154 25.5112 24.3391C31.5564 18.3628 41.2528 18.3628 47.298 24.3391L51.9998 19.4995V31.7621ZM37.3605 28.1109V35.4305L43.3884 39.0128L42.1484 41.0968L34.7771 36.7222V28.1109H37.3605Z" fill="#AF2A1A"/>
</svg>
