<svg width="106" height="166" viewBox="0 0 106 166" fill="none" xmlns="http://www.w3.org/2000/svg">
<path d="M34.1504 45.3772C34.1504 45.3772 39.4762 34.7339 38.4137 25.1592L56.1371 34.3369L55.4525 51.7602L34.1504 45.3772Z" fill="#9F616A"/>
<path d="M45.971 38.4593C54.8022 38.4593 61.9614 31.3054 61.9614 22.4806C61.9614 13.6559 54.8022 6.50195 45.971 6.50195C37.1397 6.50195 29.9805 13.6559 29.9805 22.4806C29.9805 31.3054 37.1397 38.4593 45.971 38.4593Z" fill="#9F616A"/>
<path d="M57.5848 45.3773L34.1509 42.1855L16.0429 50.7001L14.9805 116.681C14.9805 116.681 59.5178 122.003 66.536 115.085C73.5543 108.168 68.23 52.8288 68.23 52.8288L57.5779 45.3773H57.5848Z" fill="#5F24AC"/>
<path d="M33.2993 25.2848C34.0894 28.0115 32.405 31.2118 32.405 31.2118L31.6209 30.9811C31.6209 30.9811 20.6812 6.00531 38.4947 2.73669C56.3083 -0.531932 61.7739 13.0117 61.7739 13.0117C61.7739 13.0117 63.0373 19.554 60.8299 17.7678C58.6224 15.9815 46.0194 16.6839 46.0194 16.6839L36.6973 16.1684C36.6973 16.1684 32.5077 22.5579 33.2993 25.2848Z" fill="#090814"/>
<path d="M18.1824 110.298L14.9883 119.955V153.137L27.2904 264.153L42.3811 262.587L45.4131 181.8L43.7474 146.488L79.4634 200.485L61.4888 256.007H76.4334C76.4334 256.007 106.886 191.724 103.018 186.02C99.151 180.315 64.5285 113.017 64.5285 113.017C64.5285 113.017 18.1955 111.366 18.1955 110.305L18.1824 110.298Z" fill="#090814"/>
<path d="M8.59302 71.9844L3.44594 80.4085C3.44594 80.4085 -3.83282 108.996 3.44594 109.112C10.7247 109.229 25.4195 94.5461 25.4195 94.5461L23.5006 86.882L18.1753 89.0121L19.2378 71.9858H8.59302V71.9844Z" fill="#9F616A"/>
<path d="M24.5692 50.5687C24.5692 50.5687 7.53045 47.5686 5.9334 58.712C4.33634 69.8554 3.44531 80.4164 3.44531 80.4164L21.9098 81.9436L24.5692 50.5687Z" fill="#5F24AC"/>
<path d="M62.3933 124.453L86.4377 103.979C86.713 103.73 86.8782 103.381 86.8971 103.011C86.916 102.64 86.787 102.277 86.5385 102.001L47.5992 56.3367C47.3659 56.0478 47.0276 55.8629 46.6582 55.8227C46.2889 55.7825 45.9187 55.8902 45.6286 56.1222L21.5842 76.5965C21.3089 76.8459 21.1438 77.1941 21.1249 77.5649C21.106 77.9357 21.2349 78.2989 21.4834 78.5748L60.4252 124.239C60.6585 124.527 60.9963 124.712 61.3651 124.752C61.7338 124.792 62.1035 124.685 62.3933 124.453Z" fill="white"/>
<path d="M62.3933 124.453L86.4377 103.979C86.713 103.73 86.8782 103.381 86.8971 103.011C86.916 102.64 86.787 102.277 86.5385 102.001L47.5992 56.3367C47.3659 56.0478 47.0276 55.8629 46.6582 55.8227C46.2889 55.7825 45.9187 55.8902 45.6286 56.1222L21.5842 76.5965C21.3089 76.8459 21.1438 77.1941 21.1249 77.5649C21.106 77.9357 21.2349 78.2989 21.4834 78.5748L60.4252 124.239C60.6585 124.527 60.9963 124.712 61.3651 124.752C61.7338 124.792 62.1035 124.685 62.3933 124.453Z" stroke="#2F2E41" stroke-miterlimit="10"/>
<path d="M73.9799 58.7598L83.6577 60.7595C83.6577 60.7595 109.525 74.9846 104.631 80.3746C99.7368 85.7646 78.9707 86.4565 78.9707 86.4565L74.6801 79.82L79.8754 77.3872L66.7012 66.5353L73.9799 58.7598Z" fill="#9F616A"/>
<path d="M47.4131 55.7803C47.4131 55.7803 56.8649 41.2948 66.0971 47.7464C75.3293 54.198 83.6515 60.7596 83.6515 60.7596L72.1489 75.2733L47.4062 55.7803H47.4131Z" fill="#5F24AC"/>
<path d="M81.4013 82.4944C80.8742 79.8917 76.2273 78.6351 71.022 79.6877C65.8168 80.7402 62.0244 83.7034 62.5515 86.306C63.0786 88.9087 67.7255 90.1653 72.9307 89.1127C78.1359 88.0602 81.9283 85.097 81.4013 82.4944Z" fill="#9F616A"/>
<path d="M36.5335 82.4632C34.9919 80.3004 30.2354 81.0427 25.9098 84.1214C21.5841 87.2 19.3271 91.4492 20.8688 93.6121C22.4104 95.7749 27.1668 95.0326 31.4925 91.9539C35.8182 88.8753 38.0751 84.6261 36.5335 82.4632Z" fill="#9F616A"/>
</svg>
