<svg width="30" height="34" viewBox="0 0 30 34" fill="none" xmlns="http://www.w3.org/2000/svg">
<path d="M28.3333 33.6663H1.66667C1.22464 33.6663 0.800716 33.4907 0.488155 33.1782C0.175595 32.8656 0 32.4417 0 31.9997V1.99967C0 1.55765 0.175595 1.13372 0.488155 0.821163C0.800716 0.508602 1.22464 0.333008 1.66667 0.333008H28.3333C28.7754 0.333008 29.1993 0.508602 29.5118 0.821163C29.8244 1.13372 30 1.55765 30 1.99967V31.9997C30 32.4417 29.8244 32.8656 29.5118 33.1782C29.1993 33.4907 28.7754 33.6663 28.3333 33.6663ZM26.6667 30.333V3.66634H3.33333V30.333H26.6667ZM8.33333 8.66634H21.6667V11.9997H8.33333V8.66634ZM8.33333 15.333H21.6667V18.6663H8.33333V15.333ZM8.33333 21.9997H16.6667V25.333H8.33333V21.9997Z" fill="#8270DB"/>
</svg>
