<svg width="36" height="35" viewBox="0 0 36 35" fill="none" xmlns="http://www.w3.org/2000/svg">
<path d="M8.09175 21.9997L0.666748 27.833V1.99967C0.666748 1.55765 0.842343 1.13372 1.1549 0.821163C1.46746 0.508602 1.89139 0.333008 2.33341 0.333008H27.3334C27.7754 0.333008 28.1994 0.508602 28.5119 0.821163C28.8245 1.13372 29.0001 1.55765 29.0001 1.99967V21.9997H8.09175ZM6.93841 18.6663H25.6667V3.66634H4.00008V20.9747L6.93841 18.6663ZM12.3334 25.333H29.3951L32.3334 27.6413V10.333H34.0001C34.4421 10.333 34.866 10.5086 35.1786 10.8212C35.4912 11.1337 35.6667 11.5576 35.6667 11.9997V34.4997L28.2417 28.6663H14.0001C13.5581 28.6663 13.1341 28.4907 12.8216 28.1782C12.509 27.8656 12.3334 27.4417 12.3334 26.9997V25.333Z" fill="#0056C9"/>
</svg>
