<svg width="41" height="41" viewBox="0 0 41 41" fill="none" xmlns="http://www.w3.org/2000/svg">
<path d="M7.06657 7.26628H17.0666V17.2663H7.06657V7.26628ZM33.7332 7.26628V17.2663H23.7332V7.26628H33.7332ZM23.7332 25.5996H27.0666V22.2663H23.7332V18.9329H27.0666V22.2663H30.3999V18.9329H33.7332V22.2663H30.3999V25.5996H33.7332V30.5996H30.3999V33.9329H27.0666V30.5996H22.0666V33.9329H18.7332V27.2663H23.7332V25.5996ZM27.0666 25.5996V30.5996H30.3999V25.5996H27.0666ZM7.06657 33.9329V23.9329H17.0666V33.9329H7.06657ZM10.3999 10.5996V13.9329H13.7332V10.5996H10.3999ZM27.0666 10.5996V13.9329H30.3999V10.5996H27.0666ZM10.3999 27.2663V30.5996H13.7332V27.2663H10.3999ZM7.06657 18.9329H10.3999V22.2663H7.06657V18.9329ZM15.3999 18.9329H22.0666V25.5996H18.7332V22.2663H15.3999V18.9329ZM18.7332 10.5996H22.0666V17.2663H18.7332V10.5996ZM3.73324 3.93294V10.5996H0.399902V3.93294C0.399902 3.04889 0.751092 2.20104 1.37621 1.57592C2.00133 0.950799 2.84918 0.599609 3.73324 0.599609L10.3999 0.599609V3.93294H3.73324ZM37.0666 0.599609C37.9506 0.599609 38.7985 0.950799 39.4236 1.57592C40.0487 2.20104 40.3999 3.04889 40.3999 3.93294V10.5996H37.0666V3.93294H30.3999V0.599609H37.0666ZM3.73324 30.5996V37.2663H10.3999V40.5996H3.73324C2.84918 40.5996 2.00133 40.2484 1.37621 39.6233C0.751092 38.9982 0.399902 38.1503 0.399902 37.2663V30.5996H3.73324ZM37.0666 37.2663V30.5996H40.3999V37.2663C40.3999 38.1503 40.0487 38.9982 39.4236 39.6233C38.7985 40.2484 37.9506 40.5996 37.0666 40.5996H30.3999V37.2663H37.0666Z" fill="black"/>
</svg>
