<?xml version="1.0" encoding="UTF-8"?>
<svg version="1.1" xmlns="http://www.w3.org/2000/svg" width="780" height="1593">
<path d="M0 0 C257.4 0 514.8 0 780 0 C780 525.69 780 1051.38 780 1593 C522.6 1593 265.2 1593 0 1593 C0 1067.31 0 541.62 0 0 Z " fill="#FEFEFE" transform="translate(0,0)"/>
<path d="M0 0 C1.19214111 0.32025146 2.38428223 0.64050293 3.61254883 0.97045898 C10.60989602 2.86408198 17.57275467 4.86231141 24.50976562 6.96533203 C31.57381303 9.08074094 38.72822299 10.82934406 45.8894043 12.58227539 C46.835979 12.81422607 47.78255371 13.04617676 48.7578125 13.28515625 C49.68547424 13.50909561 50.61313599 13.73303497 51.56890869 13.96376038 C53.77986587 14.53135721 55.97821989 15.15041767 58.16078186 15.81893921 C67.07646415 18.48042976 75.20673859 19.38088415 84.48940468 19.32892036 C86.80828686 19.3160167 89.12602547 19.32781988 91.44487 19.34495544 C95.52950121 19.37135757 99.61384007 19.37726215 103.69854736 19.37585449 C110.25026457 19.3736052 116.80162304 19.38807456 123.35320091 19.43144035 C125.61874948 19.44116153 127.88371114 19.43262959 130.14924622 19.42274475 C141.7710086 19.44048621 150.59123294 20.76651505 159.60546875 28.41796875 C166.13756942 35.30984088 169.02843588 43.07660537 169.00871277 52.40176392 C169.01097833 53.18201915 169.01324388 53.96227439 169.01557809 54.76617372 C169.02192455 57.38921536 169.0210883 60.01220542 169.02026367 62.63525391 C169.02325486 64.51269599 169.0266573 66.39013747 169.03044128 68.26757812 C169.03929206 73.37528318 169.04161992 78.48297148 169.04225707 83.59068346 C169.04320589 87.85481073 169.04688409 92.11893409 169.05042917 96.38305986 C169.0585787 106.44726978 169.06101304 116.51147075 169.06030273 126.57568359 C169.05970259 136.95192498 169.07024064 147.32811427 169.0860464 157.70434248 C169.09913385 166.61402653 169.10448609 175.52369358 169.10384732 184.43338716 C169.10359258 189.75394607 169.10643024 195.07445876 169.11702538 200.39500809 C169.12672596 205.40347901 169.12677206 210.41185971 169.11950874 215.42033386 C169.11846517 217.25487271 169.12081227 219.08941723 169.1268692 220.92394638 C169.13462475 223.43651402 169.12992085 225.94877289 169.12223816 228.46133423 C169.12738172 229.18013437 169.13252529 229.89893451 169.13782471 230.63951647 C169.06825649 241.00004982 166.30661594 248.66224363 159.5625 256.5 C152.07251876 262.94486758 145.28833983 266.12202687 135.3306427 266.06646729 C134.47179669 266.06958727 133.61295067 266.07270725 132.72807902 266.07592177 C129.85095742 266.08389723 126.97404699 266.07757974 124.09692383 266.07128906 C122.03361894 266.07399922 119.97031502 266.0775603 117.90701294 266.08190918 C112.30142037 266.09103529 106.69590134 266.08748722 101.09030747 266.08115101 C95.22131034 266.0760888 89.35231952 266.0807834 83.48332214 266.08392334 C73.62160106 266.08756377 63.7599099 266.08276336 53.89819336 266.07324219 C42.50854899 266.06237258 31.11897631 266.06587205 19.7293337 266.076895 C9.94571185 266.08598369 0.16211153 266.08724496 -9.62151319 266.08201766 C-15.46241607 266.07890472 -21.30328532 266.07846974 -27.14418602 266.08509064 C-32.64105312 266.09088591 -38.1378283 266.08682729 -43.63468552 266.07530212 C-45.64779699 266.07266655 -47.66091625 266.07340171 -49.67402458 266.07782745 C-52.43136091 266.08332841 -55.18840646 266.07639381 -57.94572449 266.06646729 C-58.73417556 266.07092873 -59.52262664 266.07539017 -60.33497018 266.07998681 C-71.29842869 266.00393191 -79.46275109 263.68466766 -87.8125 256.5 C-94.00200236 249.30679456 -97.43786401 242.57158628 -97.37896729 232.98272705 C-97.38208727 232.20076297 -97.38520725 231.41879888 -97.38842177 230.61313891 C-97.39639075 227.99624741 -97.39008233 225.3795885 -97.38378906 222.76269531 C-97.3864995 220.88495752 -97.39006073 219.0072208 -97.39440918 217.12948608 C-97.40353166 212.03014046 -97.39998882 206.93087571 -97.39365101 201.83152866 C-97.38858732 196.49191126 -97.39328377 191.15230078 -97.39642334 185.81268311 C-97.40006316 176.84125527 -97.39526476 167.86986034 -97.38574219 158.8984375 C-97.37487088 148.5369182 -97.37837353 138.17547769 -97.389395 127.81396031 C-97.39848323 118.91272409 -97.39974523 110.01151154 -97.39451766 101.11027217 C-97.39140471 95.79645545 -97.39096982 90.48267571 -97.39759064 85.16886139 C-97.40338532 80.16856341 -97.39932838 75.16836649 -97.38780212 70.16807938 C-97.38516631 68.33676699 -97.38590212 66.50544605 -97.39032745 64.67413712 C-97.39582745 62.16604727 -97.38889508 59.65827723 -97.37896729 57.15020752 C-97.38342873 56.43277162 -97.38789017 55.71533572 -97.39248681 54.97615933 C-97.31967071 45.43141235 -94.98223688 37.435999 -89.125 29.8125 C-86.65539483 27.38448818 -84.14554305 25.50088109 -81.125 23.8125 C-80.5168042 23.46832031 -79.9086084 23.12414062 -79.28198242 22.76953125 C-72.8443106 19.48208589 -67.19194314 19.32860029 -60.0625 19.5625 C-58.47791992 19.58957031 -58.47791992 19.58957031 -56.86132812 19.6171875 C-54.2815745 19.66387987 -51.70379183 19.72934412 -49.125 19.8125 C-48.8465625 18.90371094 -48.568125 17.99492188 -48.28125 17.05859375 C-45.22618927 8.48171718 -38.84621929 3.27942334 -31.125 -1.1875 C-20.89787772 -5.46429659 -10.25327786 -2.85418611 0 0 Z " fill="#CEACFB" transform="translate(361.125,585.1875)"/>
<path d="M0 0 C1.19214111 0.32025146 2.38428223 0.64050293 3.61254883 0.97045898 C10.60989602 2.86408198 17.57275467 4.86231141 24.50976562 6.96533203 C31.57381303 9.08074094 38.72822299 10.82934406 45.8894043 12.58227539 C46.835979 12.81422607 47.78255371 13.04617676 48.7578125 13.28515625 C49.68547424 13.50909561 50.61313599 13.73303497 51.56890869 13.96376038 C53.77986587 14.53135721 55.97821989 15.15041767 58.16078186 15.81893921 C67.07646415 18.48042976 75.20673859 19.38088415 84.48940468 19.32892036 C86.80828686 19.3160167 89.12602547 19.32781988 91.44487 19.34495544 C95.52950121 19.37135757 99.61384007 19.37726215 103.69854736 19.37585449 C110.25026457 19.3736052 116.80162304 19.38807456 123.35320091 19.43144035 C125.61874948 19.44116153 127.88371114 19.43262959 130.14924622 19.42274475 C141.7710086 19.44048621 150.59123294 20.76651505 159.60546875 28.41796875 C166.13756942 35.30984088 169.02843588 43.07660537 169.00871277 52.40176392 C169.01097833 53.18201915 169.01324388 53.96227439 169.01557809 54.76617372 C169.02192455 57.38921536 169.0210883 60.01220542 169.02026367 62.63525391 C169.02325486 64.51269599 169.0266573 66.39013747 169.03044128 68.26757812 C169.03929206 73.37528318 169.04161992 78.48297148 169.04225707 83.59068346 C169.04320589 87.85481073 169.04688409 92.11893409 169.05042917 96.38305986 C169.0585787 106.44726978 169.06101304 116.51147075 169.06030273 126.57568359 C169.05970259 136.95192498 169.07024064 147.32811427 169.0860464 157.70434248 C169.09913385 166.61402653 169.10448609 175.52369358 169.10384732 184.43338716 C169.10359258 189.75394607 169.10643024 195.07445876 169.11702538 200.39500809 C169.12672596 205.40347901 169.12677206 210.41185971 169.11950874 215.42033386 C169.11846517 217.25487271 169.12081227 219.08941723 169.1268692 220.92394638 C169.13462475 223.43651402 169.12992085 225.94877289 169.12223816 228.46133423 C169.12738172 229.18013437 169.13252529 229.89893451 169.13782471 230.63951647 C169.06825649 241.00004982 166.30661594 248.66224363 159.5625 256.5 C152.07251876 262.94486758 145.28833983 266.12202687 135.3306427 266.06646729 C134.47179669 266.06958727 133.61295067 266.07270725 132.72807902 266.07592177 C129.85095742 266.08389723 126.97404699 266.07757974 124.09692383 266.07128906 C122.03361894 266.07399922 119.97031502 266.0775603 117.90701294 266.08190918 C112.30142037 266.09103529 106.69590134 266.08748722 101.09030747 266.08115101 C95.22131034 266.0760888 89.35231952 266.0807834 83.48332214 266.08392334 C73.62160106 266.08756377 63.7599099 266.08276336 53.89819336 266.07324219 C42.50854899 266.06237258 31.11897631 266.06587205 19.7293337 266.076895 C9.94571185 266.08598369 0.16211153 266.08724496 -9.62151319 266.08201766 C-15.46241607 266.07890472 -21.30328532 266.07846974 -27.14418602 266.08509064 C-32.64105312 266.09088591 -38.1378283 266.08682729 -43.63468552 266.07530212 C-45.64779699 266.07266655 -47.66091625 266.07340171 -49.67402458 266.07782745 C-52.43136091 266.08332841 -55.18840646 266.07639381 -57.94572449 266.06646729 C-58.73417556 266.07092873 -59.52262664 266.07539017 -60.33497018 266.07998681 C-71.29842869 266.00393191 -79.46275109 263.68466766 -87.8125 256.5 C-94.00200236 249.30679456 -97.43786401 242.57158628 -97.37896729 232.98272705 C-97.38208727 232.20076297 -97.38520725 231.41879888 -97.38842177 230.61313891 C-97.39639075 227.99624741 -97.39008233 225.3795885 -97.38378906 222.76269531 C-97.3864995 220.88495752 -97.39006073 219.0072208 -97.39440918 217.12948608 C-97.40353166 212.03014046 -97.39998882 206.93087571 -97.39365101 201.83152866 C-97.38858732 196.49191126 -97.39328377 191.15230078 -97.39642334 185.81268311 C-97.40006316 176.84125527 -97.39526476 167.86986034 -97.38574219 158.8984375 C-97.37487088 148.5369182 -97.37837353 138.17547769 -97.389395 127.81396031 C-97.39848323 118.91272409 -97.39974523 110.01151154 -97.39451766 101.11027217 C-97.39140471 95.79645545 -97.39096982 90.48267571 -97.39759064 85.16886139 C-97.40338532 80.16856341 -97.39932838 75.16836649 -97.38780212 70.16807938 C-97.38516631 68.33676699 -97.38590212 66.50544605 -97.39032745 64.67413712 C-97.39582745 62.16604727 -97.38889508 59.65827723 -97.37896729 57.15020752 C-97.38342873 56.43277162 -97.38789017 55.71533572 -97.39248681 54.97615933 C-97.31967071 45.43141235 -94.98223688 37.435999 -89.125 29.8125 C-86.65539483 27.38448818 -84.14554305 25.50088109 -81.125 23.8125 C-80.5168042 23.46832031 -79.9086084 23.12414062 -79.28198242 22.76953125 C-72.8443106 19.48208589 -67.19194314 19.32860029 -60.0625 19.5625 C-58.47791992 19.58957031 -58.47791992 19.58957031 -56.86132812 19.6171875 C-54.2815745 19.66387987 -51.70379183 19.72934412 -49.125 19.8125 C-48.8465625 18.90371094 -48.568125 17.99492188 -48.28125 17.05859375 C-45.22618927 8.48171718 -38.84621929 3.27942334 -31.125 -1.1875 C-20.89787772 -5.46429659 -10.25327786 -2.85418611 0 0 Z M-87.58203125 34.94921875 C-92.7338813 41.17056679 -93.27493266 48.7056674 -93.26544189 56.48368835 C-93.26841302 57.24861266 -93.27138414 58.01353697 -93.2744453 58.80164081 C-93.28310616 61.36085437 -93.28463833 63.920021 -93.28613281 66.47924805 C-93.29076287 68.31595458 -93.29578778 70.15266016 -93.30117798 71.98936462 C-93.31428669 76.97718386 -93.32074407 81.96498964 -93.32518864 86.9528234 C-93.32812209 90.07112353 -93.33222743 93.18942 -93.33669281 96.30771828 C-93.35036429 106.070207 -93.36003242 115.83268735 -93.3638947 125.59518498 C-93.36837343 136.85311866 -93.38591427 148.1109308 -93.4148953 159.36882752 C-93.4365349 168.07814458 -93.44660022 176.78742751 -93.44793582 185.49677116 C-93.4489823 190.69495908 -93.45485654 195.8930327 -93.47275543 201.09119225 C-93.48927529 205.98399498 -93.49137262 210.87659797 -93.48261642 215.76941872 C-93.48184812 217.56000428 -93.48616137 219.35060077 -93.49607468 221.14115906 C-93.55957183 233.33006085 -93.3585392 244.07242643 -85.22265625 253.83203125 C-77.90019042 260.74542077 -69.33749322 261.96192543 -59.66329956 261.95967102 C-58.38833955 261.96518605 -58.38833955 261.96518605 -57.08762276 261.9708125 C-54.24053793 261.98182221 -51.39348963 261.98568858 -48.54638672 261.98950195 C-46.50440862 261.99576866 -44.46243165 262.00241565 -42.42045593 262.00941467 C-35.71520783 262.03043323 -29.00995956 262.0408152 -22.3046875 262.05078125 C-19.99409091 262.05482967 -17.68349445 262.05894662 -15.3728981 262.06313133 C-4.51637456 262.08217837 6.3401422 262.09641028 17.19667923 262.1047433 C29.71791115 262.11451342 42.23896617 262.14082927 54.76013577 262.18124419 C64.44525555 262.2114296 74.1303247 262.2262145 83.8154906 262.22952431 C89.59668955 262.23187206 95.37769943 262.24079686 101.15884781 262.26598549 C106.60078406 262.28931344 112.04240737 262.29348033 117.48438072 262.28322411 C119.47612106 262.28272978 121.46787706 262.28901948 123.45956993 262.30278015 C140.00359456 262.49453246 140.00359456 262.49453246 154.8125 255.69921875 C162.90346353 247.07192241 165.02994185 239.86022548 165.01544189 228.014328 C165.01841302 227.2478437 165.02138414 226.4813594 165.0244453 225.6916483 C165.03309009 223.13320681 165.03463695 220.57481234 165.03613281 218.01635742 C165.04076391 216.17788087 165.04578897 214.33940527 165.05117798 212.50093079 C165.06427439 207.51323791 165.07074135 202.52555847 165.07518864 197.5378511 C165.07812335 194.41972089 165.08222888 191.30159433 165.08669281 188.18346596 C165.10035944 178.42151666 165.11003062 168.65957572 165.1138947 158.89761752 C165.11837586 147.63968391 165.13593002 136.38187168 165.1648953 125.12397498 C165.18652573 116.41380414 165.19659968 107.70366742 165.19793582 98.99347001 C165.19898271 93.79476996 165.20486618 88.59618415 165.22275543 83.39751244 C165.23926 78.50634107 165.24138001 73.61536955 165.23261642 68.72418022 C165.23184738 66.93317377 165.23617129 65.14215646 165.24607468 63.35117722 C165.30855478 51.34404392 164.95431033 41.52134397 156.97265625 31.828125 C149.7320738 24.87069382 141.10703442 23.65978053 131.47576904 23.67878723 C130.21094299 23.6753889 130.21094299 23.6753889 128.92056489 23.67192191 C126.09644338 23.6655943 123.27237 23.66641049 120.44824219 23.66723633 C118.42272378 23.66424403 116.39720593 23.66084134 114.37168884 23.65705872 C108.86948694 23.64822088 103.36730059 23.64588067 97.86509228 23.64524293 C94.42652156 23.64453221 90.9879548 23.64239746 87.54938507 23.63974571 C75.55033619 23.63049246 63.55129842 23.62641073 51.55224609 23.62719727 C40.37275991 23.6277978 29.19332203 23.6172506 18.01384807 23.6014536 C8.41198524 23.58837002 -1.18986183 23.58301373 -10.7917335 23.58365268 C-16.52473952 23.58390746 -22.25770264 23.58106732 -27.99069977 23.57047462 C-33.38495977 23.56078012 -38.77913598 23.56072379 -44.17339897 23.56799126 C-46.14984446 23.56903547 -48.12629521 23.56668394 -50.1027317 23.5606308 C-52.80786376 23.5528846 -55.51270836 23.55757305 -58.21783447 23.56526184 C-58.9936346 23.56011828 -59.76943472 23.55497471 -60.56874394 23.54967529 C-71.93554983 23.62070899 -79.60016953 26.72067698 -87.58203125 34.94921875 Z " fill="#C2C3F3" transform="translate(361.125,585.1875)"/>
<path d="M0 0 C1.19214111 0.32025146 2.38428223 0.64050293 3.61254883 0.97045898 C10.60842718 2.86368449 17.57108028 4.85838114 24.50537109 6.96533203 C31.68362572 9.11863235 38.96428313 10.85429918 46.2409668 12.6394043 C53.54441693 14.44389706 60.73230531 16.44090215 67.875 18.8125 C67.875 19.1425 67.875 19.4725 67.875 19.8125 C29.265 19.8125 -9.345 19.8125 -49.125 19.8125 C-45.75952632 9.71607895 -40.31561202 4.12950471 -31.125 -1.1875 C-20.89787772 -5.46429659 -10.25327786 -2.85418611 0 0 Z " fill="#8B3AF5" transform="translate(361.125,585.1875)"/>
<path d="M0 0 C6.42534822 1.6828293 10.94242854 4.79309551 14.375 10.4375 C17.00521088 16.21515988 16.7971806 22.80928221 16 29 C13.15591707 35.74661717 8.46102671 40.62786675 2.00048828 44.06323242 C-2.33707916 45.41744286 -6.48863825 45.30522331 -11.0078125 45.30078125 C-11.97024872 45.30506638 -12.93268494 45.3093515 -13.92428589 45.31376648 C-15.95325942 45.31949688 -17.9822535 45.32001957 -20.01123047 45.31567383 C-23.12112137 45.31250395 -26.23006969 45.33602344 -29.33984375 45.36132812 C-31.3124988 45.36360019 -33.28515641 45.36430504 -35.2578125 45.36328125 C-36.65472824 45.37709587 -36.65472824 45.37709587 -38.0798645 45.39118958 C-39.37668655 45.38184639 -39.37668655 45.38184639 -40.69970703 45.37231445 C-41.45961945 45.37294388 -42.21953186 45.3735733 -43.00247192 45.3742218 C-45.55015386 44.89693283 -46.43719501 44.03402607 -48 42 C-48.375 39.5 -48.375 39.5 -48 37 C-46.72514343 35.36680603 -46.72514343 35.36680603 -45 34 C-41.94192785 33.71636198 -39.07745312 33.60691302 -36.01953125 33.62890625 C-34.19726385 33.61151309 -32.37499827 33.59392883 -30.55273438 33.57617188 C-27.68705738 33.56613062 -24.82150434 33.56249461 -21.95581055 33.56420898 C-19.18501272 33.56061708 -16.4151596 33.53318243 -13.64453125 33.50390625 C-12.79840775 33.51208878 -11.95228424 33.5202713 -11.08052063 33.52870178 C-5.30610133 33.45720894 -0.79277873 32.33091207 4 29 C8.25852971 23.88976435 8.62034043 19.38009574 8.390625 12.80859375 C7.60110668 7.13195705 4.04761193 3.75849679 0 0 Z " fill="#0B25F9" transform="translate(413,722)"/>
<path d="M0 0 C0.33 0 0.66 0 1 0 C1 2.64 1 5.28 1 8 C1.639375 8.309375 2.27875 8.61875 2.9375 8.9375 C5 10 5 10 6 11 C6.33 9.35 6.66 7.7 7 6 C7.33 6 7.66 6 8 6 C8.06316406 6.86882813 8.12632812 7.73765625 8.19140625 8.6328125 C8.87199328 16.60590883 8.87199328 16.60590883 13.5 22.75 C17.26201201 25.39616099 19.72311572 26.12784935 24.33984375 26.2109375 C25.40267578 26.23929688 26.46550781 26.26765625 27.56054688 26.296875 C29.80777741 26.34886414 32.0551993 26.39316342 34.30273438 26.4296875 C35.36685547 26.460625 36.43097656 26.4915625 37.52734375 26.5234375 C38.50437256 26.54325684 39.48140137 26.56307617 40.48803711 26.58349609 C43.37597228 27.06233927 44.29717962 27.65567485 46 30 C46.375 32.5 46.375 32.5 46 35 C44.4356128 37.03400819 43.53249969 37.89365297 40.99142456 38.40113831 C39.84300583 38.4182914 39.84300583 38.4182914 38.67138672 38.43579102 C37.7997287 38.45493057 36.92807068 38.47407013 36.02999878 38.49378967 C34.6190947 38.49879738 34.6190947 38.49879738 33.1796875 38.50390625 C31.71983932 38.51888405 31.71983932 38.51888405 30.23049927 38.53416443 C28.16770682 38.54936161 26.10484056 38.55638973 24.04199219 38.5559082 C20.90693828 38.56243352 17.77511315 38.61679703 14.640625 38.67382812 C12.63282328 38.6826377 10.62500657 38.68858689 8.6171875 38.69140625 C7.68873016 38.7129628 6.76027283 38.73451935 5.80368042 38.75672913 C-1.96371546 38.67622774 -7.057453 35.82688776 -12.59109497 30.45558167 C-17.83649888 24.54134982 -18.29690347 19.57103836 -18 12 C-17.34 12 -16.68 12 -16 12 C-15.67 13.32 -15.34 14.64 -15 16 C-14.34 16 -13.68 16 -13 16 C-12.38125 17.11375 -12.38125 17.11375 -11.75 18.25 C-9.39841373 21.94534985 -6.40223632 24.17804276 -2.23046875 25.60546875 C0.78530467 26.13890678 3.68980757 26.09310192 6.75 26.0625 C7.92046875 26.05347656 9.0909375 26.04445313 10.296875 26.03515625 C11.18890625 26.02355469 12.0809375 26.01195312 13 26 C12.48050781 25.68289063 11.96101563 25.36578125 11.42578125 25.0390625 C5.51887487 21.08656692 2.12244685 16.8356739 0 10 C-0.35528543 6.61325315 -0.32425945 3.38670985 0 0 Z " fill="#720EF9" transform="translate(364,706)"/>
<path d="M0 0 C0.91662918 -0.00191345 1.83325836 -0.0038269 2.77766418 -0.00579834 C4.70651526 -0.00715441 6.63537564 -0.00349851 8.56420898 0.00488281 C11.52022651 0.01562753 14.47564142 0.00494897 17.43164062 -0.0078125 C19.30859509 -0.00649153 21.18554918 -0.00393042 23.0625 0 C23.94689255 -0.00404846 24.8312851 -0.00809692 25.74247742 -0.01226807 C26.56375626 -0.00596375 27.3850351 0.00034058 28.23120117 0.00683594 C28.9525676 0.00842712 29.67393402 0.01001831 30.41716003 0.01165771 C32.33203125 0.265625 32.33203125 0.265625 35.33203125 2.265625 C35.70703125 5.765625 35.70703125 5.765625 35.33203125 9.265625 C31.46750185 11.84197793 28.23588855 11.56245901 23.75390625 11.57421875 C22.01822596 11.59938928 20.28254896 11.62478714 18.546875 11.65039062 C15.81722952 11.6790644 13.08764138 11.70308629 10.35791016 11.72192383 C7.71876723 11.74368946 5.08030932 11.78314736 2.44140625 11.82421875 C1.63386902 11.82433456 0.82633179 11.82445038 -0.00567627 11.8245697 C-6.62077727 11.9390748 -11.30700068 13.27191863 -16.48046875 17.640625 C-20.03592185 21.90716872 -20.90950726 25.82998433 -21.66796875 31.265625 C-25.79027091 29.5479991 -25.79027091 29.5479991 -27.66796875 27.265625 C-28.84973582 22.18251153 -28.60431497 17.4217692 -26.51953125 12.62109375 C-20.10491045 2.38824629 -11.45937578 -0.05281999 0 0 Z " fill="#F80E7C" transform="translate(392.66796875,686.734375)"/>
<path d="M0 0 C0.81159576 -0.0127597 1.62319153 -0.02551941 2.4593811 -0.03866577 C3.77185318 -0.04200424 3.77185318 -0.04200424 5.11083984 -0.04541016 C6.01748383 -0.05206696 6.92412781 -0.05872375 7.85824585 -0.06558228 C9.77982557 -0.07571203 11.70144048 -0.0803992 13.62304688 -0.08007812 C16.54015594 -0.08442553 19.45571987 -0.1206693 22.37255859 -0.15869141 C24.2436472 -0.16456493 26.11474296 -0.16853074 27.98583984 -0.17041016 C29.28009384 -0.19196671 29.28009384 -0.19196671 30.60049438 -0.21395874 C38.707433 -0.15389424 46.1264019 2.4701519 51.94677734 8.29052734 C56.35362631 14.6692545 57.31353682 19.71083156 56.94677734 27.29052734 C56.28677734 27.95052734 55.62677734 28.61052734 54.94677734 29.29052734 C54.65544922 28.62666016 54.36412109 27.96279297 54.06396484 27.27880859 C50.9589579 20.59035024 48.37414972 16.19061499 41.37548828 13.18701172 C36.87936528 12.01143755 32.65344136 11.97381646 28.02490234 11.94677734 C27.08370544 11.93215454 26.14250854 11.91753174 25.17279053 11.90246582 C21.16187766 11.8403663 17.15081768 11.80043193 13.13964844 11.75878906 C10.2053992 11.72516006 7.27148314 11.68004847 4.33740234 11.63427734 C3.42597473 11.62900024 2.51454712 11.62372314 1.57550049 11.61828613 C0.31343781 11.59816467 0.31343781 11.59816467 -0.97412109 11.57763672 C-1.71547302 11.57034546 -2.45682495 11.5630542 -3.22064209 11.55554199 C-5.05322266 11.29052734 -5.05322266 11.29052734 -7.05322266 9.29052734 C-7.36572266 5.79052734 -7.36572266 5.79052734 -7.05322266 2.29052734 C-4.02164105 0.26947294 -3.40567727 0.03644933 0 0 Z " fill="#F9EE0A" transform="translate(391.05322265625,709.70947265625)"/>
<path d="M0 0 C6.42534822 1.6828293 10.94242854 4.79309551 14.375 10.4375 C17.00521088 16.21515988 16.7971806 22.80928221 16 29 C13.10658203 35.86364774 8.30398409 40.78984601 1.6875 44.1875 C-1.62428611 45.18873766 -4.55981114 45.13490937 -8 45 C-8 41.60406522 -7.47834052 40.93380119 -5.5 38.3125 C-5.0359375 37.68988281 -4.571875 37.06726563 -4.09375 36.42578125 C-3.7328125 35.95527344 -3.371875 35.48476563 -3 35 C-3.33 34.34 -3.66 33.68 -4 33 C-3.46890625 32.79246094 -2.9378125 32.58492187 -2.390625 32.37109375 C1.97604911 30.46665012 5.20217042 28.6825674 7.375 24.19140625 C9.09762449 18.15145415 9.05790799 12.11581598 6.25 6.5 C4.22793638 4.25326264 2.21530712 2.05707089 0 0 Z " fill="#0DAEF9" transform="translate(413,722)"/>
<path d="M0 0 C5.92650126 -0.04939701 11.85288297 -0.08571817 17.77954102 -0.10986328 C19.79616381 -0.11992773 21.81277199 -0.13358047 23.8293457 -0.15087891 C26.72611089 -0.17510769 29.62268331 -0.18647859 32.51953125 -0.1953125 C33.42274612 -0.20563507 34.325961 -0.21595764 35.25654602 -0.22659302 C36.09719101 -0.22674408 36.937836 -0.22689514 37.80395508 -0.22705078 C38.54341873 -0.231492 39.28288239 -0.23593323 40.04475403 -0.24050903 C42 0 42 0 45 2 C45.375 5.5 45.375 5.5 45 9 C41.38181297 11.41212469 39.69908089 11.24528253 35.3984375 11.23046875 C34.10421875 11.22853516 32.81 11.22660156 31.4765625 11.22460938 C30.80399414 11.21840576 30.13142578 11.21220215 29.43847656 11.20581055 C27.37552609 11.18750467 25.31302337 11.18530128 23.25 11.18554688 C13.14014333 11.14014333 13.14014333 11.14014333 12 10 C12.1770436 6.97883667 12.61920903 4.00401768 13 1 C8.71 1 4.42 1 0 1 C0 0.67 0 0.34 0 0 Z " fill="#F69B19" transform="translate(383,687)"/>
<path d="M0 0 C2.06091892 -0.00218884 4.12130456 -0.0203571 6.18212891 -0.03930664 C7.47505859 -0.04124023 8.76798828 -0.04317383 10.10009766 -0.04516602 C11.29183594 -0.0492749 12.48357422 -0.05338379 13.71142578 -0.05761719 C16.56884766 0.18530273 16.56884766 0.18530273 18.56884766 2.18530273 C18.93042196 5.0055823 19.07311092 6.5309783 17.30583191 8.82417297 C15.17453603 10.49429188 14.14580788 10.55062852 11.46459961 10.52587891 C10.23366325 10.52553902 10.23366325 10.52553902 8.9778595 10.52519226 C7.65584785 10.50196648 7.65584785 10.50196648 6.30712891 10.47827148 C4.94843941 10.47190422 4.94843941 10.47190422 3.56230164 10.46540833 C0.66834833 10.44861122 -2.22490941 10.41095724 -5.11865234 10.37280273 C-7.08023083 10.35775723 -9.04182023 10.34406859 -11.00341797 10.33178711 C-15.8129309 10.29870431 -20.62192368 10.24691495 -25.43115234 10.18530273 C-24.80934082 9.89018799 -24.1875293 9.59507324 -23.546875 9.29101562 C-21.14652729 8.03655281 -19.66435862 6.58333314 -17.80615234 4.62280273 C-12.44979475 -1.00254225 -7.53780445 -0.00090014 0 0 Z " fill="#2E0CFA" transform="translate(391.43115234375,733.814697265625)"/>
<path d="M0 0 C7.24472272 2.48390493 10.67056848 6.34113696 14 13 C15.49284278 16.85651052 15.19723846 20.92373852 15 25 C14.34 25.66 13.68 26.32 13 27 C12.70867187 26.33613281 12.41734375 25.67226563 12.1171875 24.98828125 C9.01933897 18.31524276 6.43685786 13.87169421 -0.57421875 10.9140625 C-5.02186339 9.72734774 -9.29055497 9.54070283 -13.875 9.375 C-14.75414062 9.33632813 -15.63328125 9.29765625 -16.5390625 9.2578125 C-18.69238793 9.16418966 -20.84616414 9.08103541 -23 9 C-23 8.67 -23 8.34 -23 8 C-22.39414062 7.97421875 -21.78828125 7.9484375 -21.1640625 7.921875 C-13.50462678 7.40339012 -5.32179669 5.98916026 0 0 Z " fill="#D1F01F" transform="translate(433,712)"/>
<path d="M0 0 C1.32 0.33 2.64 0.66 4 1 C5.484375 3.50390625 5.484375 3.50390625 6.75 6.5625 C7.17796875 7.57441406 7.6059375 8.58632812 8.046875 9.62890625 C8.36140625 10.41136719 8.6759375 11.19382812 9 12 C11.07535607 9.35971892 12.72678097 6.77217731 14.1875 3.75 C14.70376953 2.69039062 14.70376953 2.69039062 15.23046875 1.609375 C15.48441406 1.07828125 15.73835938 0.5471875 16 0 C17.32 0 18.64 0 20 0 C20 6.6 20 13.2 20 20 C18.68 20 17.36 20 16 20 C15.67 17.03 15.34 14.06 15 11 C13.68 13.97 12.36 16.94 11 20 C8 19 8 19 6.83203125 17.15234375 C5.88802083 15.1015625 4.94401042 13.05078125 4 11 C3.67 13.97 3.34 16.94 3 20 C2.01 20 1.02 20 0 20 C0 13.4 0 6.8 0 0 Z " fill="#2C3F7C" transform="translate(321,1399)"/>
<path d="M0 0 C1.32 0 2.64 0 4 0 C5.98 3.96 7.96 7.92 10 12 C11.68156755 9.47764868 13.16468006 6.96413358 14.625 4.3125 C15.07101562 3.50425781 15.51703125 2.69601562 15.9765625 1.86328125 C16.31429688 1.24839844 16.65203125 0.63351562 17 0 C17.99 0 18.98 0 20 0 C20 6.6 20 13.2 20 20 C19.01 20 18.02 20 17 20 C16.505 15.05 16.505 15.05 16 10 C14.35 13.3 12.7 16.6 11 20 C10.34 20 9.68 20 9 20 C7.35 16.37 5.7 12.74 4 9 C3.67 12.63 3.34 16.26 3 20 C2.01 20 1.02 20 0 20 C0 13.4 0 6.8 0 0 Z " fill="#283B7A" transform="translate(462,1399)"/>
<path d="M0 0 C1.27230469 0.01804687 2.54460937 0.03609375 3.85546875 0.0546875 C5.31919922 0.08949219 5.31919922 0.08949219 6.8125 0.125 C7.65926067 3.85701925 7.77179637 6.39440301 6.8125 10.125 C3.58852808 11.19965731 1.13779214 11.29191803 -2.25 11.3125 C-3.31347656 11.32667969 -4.37695312 11.34085938 -5.47265625 11.35546875 C-8.1875 11.125 -8.1875 11.125 -10.1875 9.125 C-10.5 5.625 -10.5 5.625 -10.1875 2.125 C-6.4507157 -0.36618953 -4.44298181 -0.0815226 0 0 Z " fill="#F80D83" transform="translate(394.1875,709.875)"/>
<path d="M0 0 C14.19 0 28.38 0 43 0 C41.02 3.3 39.04 6.6 37 10 C37 10.33 37 10.66 37 11 C35.06280622 11.05406122 33.12518079 11.09282025 31.1875 11.125 C30.10855469 11.14820313 29.02960938 11.17140625 27.91796875 11.1953125 C25 11 25 11 22 9 C24.31 6.69 26.62 4.38 29 2 C19.43 1.67 9.86 1.34 0 1 C0 0.67 0 0.34 0 0 Z " fill="#2068FA" transform="translate(368,756)"/>
<path d="M0 0 C3.39157221 0.06553763 4.36412363 0.18411485 7.1875 2.25 C8.625 4.375 8.625 4.375 8.625 6.375 C7.305 6.375 5.985 6.375 4.625 6.375 C4.295 5.715 3.965 5.055 3.625 4.375 C1.645 4.375 -0.335 4.375 -2.375 4.375 C-2.375 5.035 -2.375 5.695 -2.375 6.375 C-1.66472656 6.59414062 -0.95445312 6.81328125 -0.22265625 7.0390625 C2.53401403 7.99017174 5.07026956 8.96579167 7.625 10.375 C9 13.375 9 13.375 8.625 16.375 C7.1875 18.75 7.1875 18.75 4.625 20.375 C0.71626667 21.08640545 -2.34398249 20.91628419 -5.875 19.0625 C-7.375 17.375 -7.375 17.375 -7.375 14.375 C-3.5 15.25 -3.5 15.25 -2.375 16.375 C-0.37541636 16.41580783 1.62545254 16.41754356 3.625 16.375 C3.625 15.385 3.625 14.395 3.625 13.375 C3.07070313 13.18164062 2.51640625 12.98828125 1.9453125 12.7890625 C1.22085937 12.52867188 0.49640625 12.26828125 -0.25 12 C-1.32894531 11.61714844 -1.32894531 11.61714844 -2.4296875 11.2265625 C-4.375 10.375 -4.375 10.375 -6.375 8.375 C-6.625 5.375 -6.625 5.375 -6.375 2.375 C-3.98213116 -0.01786884 -3.28052906 0.05449384 0 0 Z " fill="#243877" transform="translate(493.375,1398.625)"/>
<path d="M0 0 C7.43147208 -0.36548223 7.43147208 -0.36548223 9.75 1.125 C11.56032474 3.8404871 11.29152862 5.96261285 11.1875 9.1875 C11.16042969 10.27417969 11.13335937 11.36085938 11.10546875 12.48046875 C11.07066406 13.31191406 11.03585937 14.14335938 11 15 C9.04196493 15.05389087 7.08351091 15.09274217 5.125 15.125 C4.03445313 15.14820313 2.94390625 15.17140625 1.8203125 15.1953125 C-1 15 -1 15 -3 13 C-2.9375 10.5625 -2.9375 10.5625 -2 8 C1.31964326 5.39811744 2.69316041 5 7 5 C7 4.34 7 3.68 7 3 C5.88625 3.350625 4.7725 3.70125 3.625 4.0625 C0 5 0 5 -2 4 C-1.34 2.68 -0.68 1.36 0 0 Z " fill="#30427F" transform="translate(374,1404)"/>
<path d="M0 0 C5.94 0 11.88 0 18 0 C16 5 16 5 14 8 C14.66 8.66 15.32 9.32 16 10 C13.35409986 10.02684679 10.70846904 10.04676357 8.0625 10.0625 C6.93038086 10.07506836 6.93038086 10.07506836 5.77539062 10.08789062 C3.85005687 10.09652441 1.92464419 10.05224333 0 10 C-0.33 9.67 -0.66 9.34 -1 9 C-0.8229564 5.97883667 -0.38079097 3.00401768 0 0 Z " fill="#FA480A" transform="translate(396,688)"/>
<path d="M0 0 C2.4375 2.0625 2.4375 2.0625 4 4 C3.67 4.99 3.34 5.98 3 7 C2.34 7 1.68 7 1 7 C0.34 6.01 -0.32 5.02 -1 4 C-4.54187831 3.66661404 -4.54187831 3.66661404 -8 4 C-9.25173779 5.03033389 -9.25173779 5.03033389 -9.1328125 7.25 C-9.13023437 8.1575 -9.12765625 9.065 -9.125 10 C-9.12757813 10.9075 -9.13015625 11.815 -9.1328125 12.75 C-9.25173779 14.96966611 -9.25173779 14.96966611 -8 16 C-3.73919411 16.44979055 -3.73919411 16.44979055 -0.125 14.5 C0.24625 14.005 0.6175 13.51 1 13 C1.99 13.33 2.98 13.66 4 14 C2.25 18.875 2.25 18.875 0 20 C-4.4131016 20.51968957 -7.86159151 20.85380637 -11.5 18.125 C-14.28414473 14.18079497 -14.50929695 10.73828052 -14 6 C-12.7482675 3.12101525 -11.70330872 1.55259971 -9.25 -0.375 C-5.85887913 -1.31697802 -3.39008797 -0.84752199 0 0 Z " fill="#293C7A" transform="translate(364,1399)"/>
<path d="M0 0 C2.82907312 0.80261431 4.23581476 2.20559295 5.94140625 4.55078125 C5.94140625 5.21078125 5.94140625 5.87078125 5.94140625 6.55078125 C1.06640625 5.67578125 1.06640625 5.67578125 -0.05859375 4.55078125 C-3.01676482 4.30072739 -3.01676482 4.30072739 -6.05859375 4.55078125 C-8.43058332 6.48680172 -8.43058332 6.48680172 -8.30859375 9.98828125 C-8.34669022 13.65498743 -8.34669022 13.65498743 -6.05859375 16.55078125 C-2.54016144 17.0097072 -0.70998873 16.96218861 2.31640625 15.05078125 C2.85265625 14.55578125 3.38890625 14.06078125 3.94140625 13.55078125 C4.60140625 14.21078125 5.26140625 14.87078125 5.94140625 15.55078125 C2.20671237 20.2191486 2.20671237 20.2191486 -0.99609375 21.05859375 C-5.14474008 21.29431229 -6.66811394 20.86648833 -9.99609375 18.17578125 C-12.98076683 14.37710643 -13.52419725 12.39305766 -13.05859375 7.55078125 C-9.65092177 1.44047287 -7.2212372 -1.10379869 0 0 Z " fill="#293C7A" transform="translate(311.05859375,1398.44921875)"/>
<path d="M0 0 C0.99 0 1.98 0 3 0 C3 2.64 3 5.28 3 8 C6.3 8 9.6 8 13 8 C13 5.36 13 2.72 13 0 C13.99 0 14.98 0 16 0 C16 6.6 16 13.2 16 20 C15.01 20 14.02 20 13 20 C13 17.36 13 14.72 13 12 C9.7 12 6.4 12 3 12 C3 14.64 3 17.28 3 20 C2.01 20 1.02 20 0 20 C0 13.4 0 6.8 0 0 Z " fill="#1F3374" transform="translate(279,1399)"/>
<path d="M0 0 C1.61455078 0.00483398 1.61455078 0.00483398 3.26171875 0.00976562 C4.38964844 0.01814453 5.51757812 0.02652344 6.6796875 0.03515625 C7.81535156 0.03966797 8.95101563 0.04417969 10.12109375 0.04882812 C12.93234388 0.0606401 15.7434898 0.07711118 18.5546875 0.09765625 C15.8194102 1.92117445 14.05151417 2.6628983 10.95703125 3.53515625 C9.63155273 3.91800781 9.63155273 3.91800781 8.27929688 4.30859375 C6.41760729 4.83565934 4.55562644 5.36169719 2.69335938 5.88671875 C1.36981445 6.26957031 1.36981445 6.26957031 0.01953125 6.66015625 C-0.7887915 6.88832031 -1.59711426 7.11648438 -2.42993164 7.3515625 C-4.63412808 8.00804755 -4.63412808 8.00804755 -6.4453125 10.09765625 C-9.265625 10.29296875 -9.265625 10.29296875 -12.5703125 10.22265625 C-13.66601562 10.20460938 -14.76171875 10.1865625 -15.890625 10.16796875 C-16.73367188 10.14476562 -17.57671875 10.1215625 -18.4453125 10.09765625 C-17.86007812 9.84113281 -17.27484375 9.58460938 -16.671875 9.3203125 C-14.25296642 7.99203463 -12.71332378 6.53240824 -10.8203125 4.53515625 C-7.13248368 0.66213079 -5.38156506 -0.02832403 0 0 Z " fill="#470CFA" transform="translate(384.4453125,733.90234375)"/>
<path d="M0 0 C0.99 0.66 1.98 1.32 3 2 C3.1875 5.125 3.1875 5.125 3 8 C-0.3 8 -3.6 8 -7 8 C-6.67 8.99 -6.34 9.98 -6 11 C-5.2575 11 -4.515 11 -3.75 11 C-1.5 11 0.75 11 3 11 C2 14 2 14 0 15 C-3.83614957 15.35519903 -6.14629634 15.54724594 -9.4375 13.4375 C-11.60396028 10.05782196 -11.56288002 7.94016013 -11 4 C-8.09139144 -0.53742936 -5.13682457 -0.56038086 0 0 Z " fill="#203475" transform="translate(409,1404)"/>
<path d="M0 0 C0.33 0 0.66 0 1 0 C1 2.64 1 5.28 1 8 C1.639375 8.309375 2.27875 8.61875 2.9375 8.9375 C5 10 5 10 6 11 C6.33 9.35 6.66 7.7 7 6 C7.33 6 7.66 6 8 6 C8.06316406 6.86882813 8.12632812 7.73765625 8.19140625 8.6328125 C8.87199328 16.60590883 8.87199328 16.60590883 13.5 22.75 C17.27158111 25.4028918 19.81950183 26.14598165 24.4453125 26.31640625 C25.52167969 26.35830078 26.59804688 26.40019531 27.70703125 26.44335938 C28.83496094 26.48267578 29.96289062 26.52199219 31.125 26.5625 C32.26066406 26.60568359 33.39632812 26.64886719 34.56640625 26.69335938 C37.37747768 26.7996604 40.18863945 26.90169405 43 27 C43 27.33 43 27.66 43 28 C29.47 28 15.94 28 2 28 C2 27.67 2 27.34 2 27 C5.63 26.67 9.26 26.34 13 26 C11.783125 25.21625 10.56625 24.4325 9.3125 23.625 C4.44545008 19.94229438 1.80668143 15.81870169 0 10 C-0.35528543 6.61325315 -0.32425945 3.38670985 0 0 Z " fill="#823BFA" transform="translate(364,706)"/>
<path d="M0 0 C0.33 0 0.66 0 1 0 C1.33 3.3 1.66 6.6 2 10 C2.99 10.33 3.98 10.66 5 11 C4.72285156 11.50789062 4.44570313 12.01578125 4.16015625 12.5390625 C1.9665317 16.7077298 0.47586845 20.24131553 0 25 C-4.12230216 23.2823741 -4.12230216 23.2823741 -6 21 C-7.20556463 15.8145265 -6.97066391 11.04154386 -4.67578125 6.21484375 C-3.22711088 4.00149991 -1.78184318 1.95459806 0 0 Z " fill="#F70FC3" transform="translate(371,693)"/>
<path d="M0 0 C1.32 0 2.64 0 4 0 C5.65 4.95 7.3 9.9 9 15 C10.65 10.05 12.3 5.1 14 0 C14.99 0 15.98 0 17 0 C16.32930848 4.58894201 15.23877704 8.92547207 13.9375 13.375 C13.57527344 14.62023438 13.21304687 15.86546875 12.83984375 17.1484375 C12.56269531 18.08945313 12.28554688 19.03046875 12 20 C10.02 20 8.04 20 6 20 C4.02 13.4 2.04 6.8 0 0 Z " fill="#243777" transform="translate(442,1399)"/>
<path d="M0 0 C4.62 0 9.24 0 14 0 C14 3.3 14 6.6 14 10 C9.71 10 5.42 10 1 10 C0.67 6.7 0.34 3.4 0 0 Z " fill="#F70F53" transform="translate(382,688)"/>
<path d="M0 0 C0.66 0 1.32 0 2 0 C3.45500399 2.91000797 3.20897384 5.5089333 3.25 8.75 C3.28867187 10.56757812 3.28867187 10.56757812 3.328125 12.421875 C2.73270014 18.91484129 -0.24532941 22.73298793 -5 27 C-5.66 27.33 -6.32 27.66 -7 28 C-6.40380045 23.13103697 -5.43023178 18.67209049 -4 14 C-3.34 14 -2.68 14 -2 14 C-2.04125 13.175 -2.0825 12.35 -2.125 11.5 C-1.97786007 7.38008185 -1.09476605 3.96852693 0 0 Z " fill="#0EE9F8" transform="translate(426,735)"/>
<path d="M0 0 C2.01822917 0.06510417 4.03645833 0.13020833 6.0546875 0.1953125 C6.7146875 1.5153125 7.3746875 2.8353125 8.0546875 4.1953125 C5.29192573 3.67262784 2.7285999 3.08661663 0.0546875 2.1953125 C0.3846875 3.1853125 0.7146875 4.1753125 1.0546875 5.1953125 C4.55763621 6.91098911 4.55763621 6.91098911 8.0546875 8.1953125 C8.0546875 10.1753125 8.0546875 12.1553125 8.0546875 14.1953125 C5.82577755 15.30976748 4.52413644 15.36011536 2.0546875 15.3828125 C1.0028125 15.40408203 1.0028125 15.40408203 -0.0703125 15.42578125 C-1.9453125 15.1953125 -1.9453125 15.1953125 -3.9453125 13.1953125 C-3.9453125 12.2053125 -3.9453125 11.2153125 -3.9453125 10.1953125 C0.5096875 11.1853125 0.5096875 11.1853125 5.0546875 12.1953125 C4.12502259 9.7689401 4.12502259 9.7689401 0.5546875 8.8828125 C-2.9453125 7.1953125 -2.9453125 7.1953125 -4.0078125 4.6328125 C-3.92836656 1.5344209 -3.18736121 0.32001619 0 0 Z " fill="#243777" transform="translate(425.9453125,1403.8046875)"/>
<path d="M0 0 C5.07221315 1.32843678 8.25143133 3.33473286 12 7 C13.875 10.3125 13.875 10.3125 15 13 C14.34 13 13.68 13 13 13 C13.04125 13.825 13.0825 14.65 13.125 15.5 C12.97786007 19.61991815 12.09476605 23.03147307 11 27 C10.34 27 9.68 27 9 27 C8.67 29.31 8.34 31.62 8 34 C7.34 33.67 6.68 33.34 6 33 C6.33 32.34 6.66 31.68 7 31 C9.03838829 18.46039417 9.03838829 18.46039417 6.25 6.5 C4.22793638 4.25326264 2.21530712 2.05707089 0 0 Z " fill="#0FBFF9" transform="translate(413,722)"/>
<path d="M0 0 C3.24211213 1.67334819 4.36922453 4.50181922 5.625 7.8125 C6.11910142 11.27120991 6.10678341 14.5014762 5.9375 18 C5.2775 18.66 4.6175 19.32 3.9375 20 C3.63457031 19.33613281 3.33164062 18.67226563 3.01953125 17.98828125 C0.52024978 12.72056492 -1.77380752 8.92109027 -6.0625 5 C-6.0625 4.34 -6.0625 3.68 -6.0625 3 C-4.03262677 1.04262224 -2.87116996 0 0 0 Z " fill="#9AF613" transform="translate(442.0625,719)"/>
<path d="M0 0 C13.86 0 27.72 0 42 0 C42 0.33 42 0.66 42 1 C41.278125 1 40.55625 1 39.8125 1 C36.42988793 2.20270651 36.22171614 3.00803393 34.5625 6.0625 C33.3359375 8.25390625 33.3359375 8.25390625 32 10 C28.6875 10.5 28.6875 10.5 26 10 C27.65 7.03 29.3 4.06 31 1 C20.77 1 10.54 1 0 1 C0 0.67 0 0.34 0 0 Z " fill="#EC6A45" transform="translate(383,687)"/>
<path d="M0 0 C3.96 0 7.92 0 12 0 C8.33747412 7.32505176 8.33747412 7.32505176 5 10 C2.23109922 10.79625162 -0.08600442 10.90122049 -3 11 C-2.01 10.67 -1.02 10.34 0 10 C0 6.7 0 3.4 0 0 Z " fill="#F78812" transform="translate(401,710)"/>
<path d="M0 0 C3.3 0 6.6 0 10 0 C10.95024979 3.69541586 10.95024979 6.30458414 10 10 C8.02 10 6.04 10 4 10 C0 3.375 0 3.375 0 0 Z " fill="#F90B5D" transform="translate(391,710)"/>
<path d="M0 0 C0 0.99 0 1.98 0 3 C-0.99 3.33 -1.98 3.66 -3 4 C-3.33 4.66 -3.66 5.32 -4 6 C-2.68 6 -1.36 6 0 6 C0 6.66 0 7.32 0 8 C-1.32 8 -2.64 8 -4 8 C-4 12.29 -4 16.58 -4 21 C-4.99 21 -5.98 21 -7 21 C-7 16.71 -7 12.42 -7 8 C-7.66 8 -8.32 8 -9 8 C-9 7.34 -9 6.68 -9 6 C-8.34 6 -7.68 6 -7 6 C-6.87625 5.195625 -6.7525 4.39125 -6.625 3.5625 C-6.41875 2.716875 -6.2125 1.87125 -6 1 C-4 0 -4 0 0 0 Z " fill="#1B2F72" transform="translate(397,1398)"/>
<path d="M0 0 C0.66 0.33 1.32 0.66 2 1 C0.92578125 2.7578125 -0.1484375 4.515625 -1.22265625 6.2734375 C-1.47917969 6.84320312 -1.73570312 7.41296875 -2 8 C-1.67 8.66 -1.34 9.32 -1 10 C-1.9375 12.625 -1.9375 12.625 -3 15 C-5.31 15 -7.62 15 -10 15 C-10 11.60406522 -9.47834052 10.93380119 -7.5 8.3125 C-7.0359375 7.68988281 -6.571875 7.06726563 -6.09375 6.42578125 C-5.7328125 5.95527344 -5.371875 5.48476563 -5 5 C-5.33 4.34 -5.66 3.68 -6 3 C-4.03533587 1.93224776 -2.03144641 0.93446535 0 0 Z " fill="#1897FA" transform="translate(415,752)"/>
<path d="M0 0 C2.97 0 5.94 0 9 0 C8.44271087 3.34373475 7.64826111 6.03312999 6 9 C3.69 9 1.38 9 -1 9 C-0.67 6.03 -0.34 3.06 0 0 Z " fill="#FA0A16" transform="translate(396,688)"/>
<path d="M0 0 C0.85078125 0.00322266 1.7015625 0.00644531 2.578125 0.00976562 C3.46757812 0.01814453 4.35703125 0.02652344 5.2734375 0.03515625 C6.170625 0.03966797 7.0678125 0.04417969 7.9921875 0.04882812 C10.21100398 0.06063034 12.42968768 0.0770947 14.6484375 0.09765625 C14.6484375 0.42765625 14.6484375 0.75765625 14.6484375 1.09765625 C12.37843925 1.60143393 10.10740747 2.10055644 7.8359375 2.59765625 C5.93908203 3.0153125 5.93908203 3.0153125 4.00390625 3.44140625 C1.09840843 4.00965262 -1.41530428 4.09765625 -4.3515625 4.09765625 C-5.1353125 4.94328125 -5.9190625 5.78890625 -6.7265625 6.66015625 C-7.5928125 7.46453125 -8.4590625 8.26890625 -9.3515625 9.09765625 C-11.515625 8.75 -11.515625 8.75 -13.3515625 8.09765625 C-12.22967691 6.94877342 -11.10394566 5.80364488 -9.9765625 4.66015625 C-9.35007812 4.02207031 -8.72359375 3.38398437 -8.078125 2.7265625 C-5.34988538 0.15263508 -3.64558557 -0.0243039 0 0 Z " fill="#560AFA" transform="translate(383.3515625,733.90234375)"/>
<path d="M0 0 C0 0.33 0 0.66 0 1 C-0.99580078 1.02126953 -0.99580078 1.02126953 -2.01171875 1.04296875 C-8.00781718 1.31826498 -8.00781718 1.31826498 -12.9375 4.5625 C-13.618125 5.366875 -14.29875 6.17125 -15 7 C-15.99 7 -16.98 7 -18 7 C-18.33 8.32 -18.66 9.64 -19 11 C-21.64 11 -24.28 11 -27 11 C-26.39671875 10.76539063 -25.7934375 10.53078125 -25.171875 10.2890625 C-22.48280423 8.69303129 -21.77667718 7.07670401 -20.25 4.375 C-15.28037196 -2.48155083 -7.58520449 -0.73757691 0 0 Z " fill="#F6C616" transform="translate(429,710)"/>
<path d="M0 0 C0.33 0 0.66 0 1 0 C1 2.64 1 5.28 1 8 C1.639375 8.309375 2.27875 8.61875 2.9375 8.9375 C5 10 5 10 6 11 C6.33 9.35 6.66 7.7 7 6 C7.33 6 7.66 6 8 6 C8.33 10.29 8.66 14.58 9 19 C7.68 19.33 6.36 19.66 5 20 C0.92936486 13.16714816 -0.76258253 7.96475086 0 0 Z " fill="#D127F6" transform="translate(364,706)"/>
<path d="M0 0 C1.32 0.33 2.64 0.66 4 1 C1.69 3.31 -0.62 5.62 -3 8 C-2.34 8.66 -1.68 9.32 -1 10 C-9.25 10 -17.5 10 -26 10 C-26 9.67 -26 9.34 -26 9 C-24.19015625 9.0309375 -24.19015625 9.0309375 -22.34375 9.0625 C-13.31822422 9.28542557 -13.31822422 9.28542557 -5.1640625 6.1171875 C-3.10771042 3.94320337 -3.10771042 3.94320337 -1.5078125 1.6171875 C-0.76144531 0.81667969 -0.76144531 0.81667969 0 0 Z " fill="#1447FA" transform="translate(394,757)"/>
<path d="M0 0 C0.99 0 1.98 0 3 0 C3 6.6 3 13.2 3 20 C2.34 20 1.68 20 1 20 C1 15.71 1 11.42 1 7 C-0.32 7.33 -1.64 7.66 -3 8 C-2.45276317 4.62537285 -1.9451 2.91765 0 0 Z " fill="#172C70" transform="translate(479,1399)"/>
<path d="M0 0 C-2.21849993 3.46231464 -4.11054745 4.7997864 -7.9375 6.25 C-8.79214844 6.58515625 -9.64679688 6.9203125 -10.52734375 7.265625 C-13 8 -13 8 -17 8 C-16 5 -16 5 -13.41796875 3.359375 C-12.35191406 2.82828125 -11.28585937 2.2971875 -10.1875 1.75 C-9.12917969 1.20859375 -8.07085937 0.6671875 -6.98046875 0.109375 C-3.97572265 -1.00903639 -2.89774959 -1.20681097 0 0 Z " fill="#E6F90A" transform="translate(433,712)"/>
<path d="M0 0 C0.33 0 0.66 0 1 0 C0.96686201 2.73237794 0.89958039 5.45674843 0.8125 8.1875 C0.80669922 8.95642578 0.80089844 9.72535156 0.79492188 10.51757812 C0.62502953 14.91590226 0.38269482 16.54228997 -2.55078125 20.05078125 C-3.35902344 20.69402344 -4.16726563 21.33726562 -5 22 C-6.36219168 18.32208248 -5.53943019 16.50647987 -4 13 C-3.63128912 11.34080104 -3.28718326 9.6752357 -3 8 C-2.34 8 -1.68 8 -1 8 C-1.020625 7.05125 -1.04125 6.1025 -1.0625 5.125 C-1 2 -1 2 0 0 Z " fill="#0AD7F9" transform="translate(425,741)"/>
<path d="M0 0 C2.31 0 4.62 0 7 0 C6.67 2.97 6.34 5.94 6 9 C4.02 9 2.04 9 0 9 C0 6.03 0 3.06 0 0 Z " fill="#FA0A2A" transform="translate(389,688)"/>
<path d="M0 0 C0.33 0.99 0.66 1.98 1 3 C1.66 3 2.32 3 3 3 C3 3.66 3 4.32 3 5 C3.99 5 4.98 5 6 5 C5.67 7.97 5.34 10.94 5 14 C2 12.5 2 12.5 -1 10 C-1.75989019 6.53599607 -1.60800743 3.21601485 0 0 Z " fill="#F80AF1" transform="translate(366,704)"/>
<path d="M0 0 C0.66 0.33 1.32 0.66 2 1 C2.36217304 5.4668008 2.36217304 5.4668008 0.875 7.65625 C-1.82997545 9.59481574 -3.90367323 9.2934299 -7.1875 9.1875 C-8.27417969 9.16042969 -9.36085938 9.13335938 -10.48046875 9.10546875 C-11.72763672 9.05326172 -11.72763672 9.05326172 -13 9 C-13 8.67 -13 8.34 -13 8 C-12.13375 7.7525 -11.2675 7.505 -10.375 7.25 C-6.32030457 5.74826095 -2.0107669 4.0215338 0 0 Z " fill="#0D33FA" transform="translate(408,735)"/>
<path d="M0 0 C-1.24954599 3.74863797 -2.77952532 4.79846775 -5.9453125 6.9921875 C-9.38012607 8.67694397 -12.23568282 8.33020326 -16 8 C-12.71195019 5.08772731 -10.40114397 3.50298788 -6 3 C-6 2.34 -6 1.68 -6 1 C-4 0 -4 0 0 0 Z " fill="#0F0FFA" transform="translate(408,735)"/>
<path d="M0 0 C2.3125 0.8125 2.3125 0.8125 3.3125 2.8125 C-1.4375 5.8125 -1.4375 5.8125 -3.6875 5.8125 C-4.0175 6.4725 -4.3475 7.1325 -4.6875 7.8125 C-6.6675 7.1525 -8.6475 6.4925 -10.6875 5.8125 C-9.35416667 4.8125 -8.02083333 3.8125 -6.6875 2.8125 C-6.048125 2.235 -5.40875 1.6575 -4.75 1.0625 C-2.6875 -0.1875 -2.6875 -0.1875 0 0 Z " fill="#B4F515" transform="translate(439.6875,716.1875)"/>
<path d="M0 0 C3 1 3 1 4 3 C3.01 3 2.02 3 1 3 C1.33 3.99 1.66 4.98 2 6 C4.01508358 6.73323796 4.01508358 6.73323796 6 7 C6 7.66 6 8.32 6 9 C2.625 9.125 2.625 9.125 -1 9 C-1.66 8.34 -2.32 7.68 -3 7 C-2.67028521 3.70285207 -2.3773161 2.3773161 0 0 Z " fill="#2A3D7B" transform="translate(374,1410)"/>
<path d="M0 0 C2.475 0.495 2.475 0.495 5 1 C4.67 3.97 4.34 6.94 4 10 C2.68 10 1.36 10 0 10 C0 6.7 0 3.4 0 0 Z " fill="#F91B11" transform="translate(397,710)"/>
<path d="M0 0 C0.721875 0.165 1.44375 0.33 2.1875 0.5 C0.89056052 4.39081843 -0.51949112 6.98181674 -3.8125 9.5 C-5.9453125 9.1015625 -5.9453125 9.1015625 -7.8125 8.5 C-3.69871444 0.65754923 -3.69871444 0.65754923 0 0 Z " fill="#FA870A" transform="translate(422.8125,687.5)"/>
<path d="M0 0 C2.97 0.495 2.97 0.495 6 1 C5.01 3.97 4.02 6.94 3 10 C1.02 10.33 -0.96 10.66 -3 11 C-2.01 10.67 -1.02 10.34 0 10 C0 6.7 0 3.4 0 0 Z " fill="#F85A10" transform="translate(401,710)"/>
<path d="M0 0 C0.66 0.33 1.32 0.66 2 1 C2.4140625 3.50390625 2.4140625 3.50390625 2.625 6.5625 C2.69976562 7.57441406 2.77453125 8.58632813 2.8515625 9.62890625 C2.90054687 10.41136719 2.94953125 11.19382812 3 12 C1.68 12 0.36 12 -1 12 C-2.11445498 9.77109005 -2.16480286 8.46944894 -2.1875 6 C-2.20167969 5.29875 -2.21585937 4.5975 -2.23046875 3.875 C-2 2 -2 2 0 0 Z " fill="#F90BA5" transform="translate(374,691)"/>
<path d="M0 0 C0.66 0 1.32 0 2 0 C2.33 3.96 2.66 7.92 3 12 C1.68 12.33 0.36 12.66 -1 13 C-1.22151549 11.20991533 -1.42682213 9.41781838 -1.625 7.625 C-1.74101562 6.62726562 -1.85703125 5.62953125 -1.9765625 4.6015625 C-1.98429687 3.74304688 -1.99203125 2.88453125 -2 2 C-1.34 1.34 -0.68 0.68 0 0 Z " fill="#F70E92" transform="translate(377,689)"/>
<path d="M0 0 C1.66611905 -0.042721 3.33382885 -0.04063832 5 0 C6.89488952 1.89488952 6.18019112 4.57139146 6.23046875 7.08984375 C6 9 6 9 4 11 C3.32880451 9.5437455 2.66318193 8.08492133 2 6.625 C1.62875 5.81289063 1.2575 5.00078125 0.875 4.1640625 C0 2 0 2 0 0 Z " fill="#78F611" transform="translate(442,728)"/>
<path d="M0 0 C10.56 0 21.12 0 32 0 C32 0.33 32 0.66 32 1 C28.7 1 25.4 1 22 1 C22 1.66 22 2.32 22 3 C20.51306641 2.76990234 20.51306641 2.76990234 18.99609375 2.53515625 C15.02803017 1.96829002 11.06358009 1.68535452 7.0625 1.4375 C6.03672852 1.37272461 6.03672852 1.37272461 4.99023438 1.30664062 C3.32697635 1.20196005 1.66350837 1.10062406 0 1 C0 0.67 0 0.34 0 0 Z " fill="#BF8FF2" transform="translate(397,721)"/>
<path d="M0 0 C0.33 0 0.66 0 1 0 C0.67 2.31 0.34 4.62 0 7 C-4.455 7.495 -4.455 7.495 -9 8 C-9.33 6.68 -9.66 5.36 -10 4 C-6.7 4 -3.4 4 0 4 C0 2.68 0 1.36 0 0 Z " fill="#CDD1E0" transform="translate(412,1408)"/>
<path d="M0 0 C0 2.31 0 4.62 0 7 C1.32 7.33 2.64 7.66 4 8 C4 8.66 4 9.32 4 10 C2.68 10 1.36 10 0 10 C0 9.34 0 8.68 0 8 C-1.32 7.67 -2.64 7.34 -4 7 C-3.625 4.0625 -3.625 4.0625 -3 1 C-1 0 -1 0 0 0 Z " fill="#F80DDB" transform="translate(369,699)"/>
<path d="M0 0 C2.375 0.3125 2.375 0.3125 5 1 C7 4 7 4 7 7 C5.68 7.33 4.36 7.66 3 8 C0 3.375 0 3.375 0 0 Z " fill="#B315F9" transform="translate(366,718)"/>
<path d="M0 0 C0 3 0 3 0 3 Z M-2 3 C-2 6 -2 6 -3 8 C-2.34 8.66 -1.68 9.32 -1 10 C-6.28 10 -11.56 10 -17 10 C-17 9.67 -17 9.34 -17 9 C-16.33613281 8.98582031 -15.67226563 8.97164062 -14.98828125 8.95703125 C-8.82744805 8.72950819 -8.82744805 8.72950819 -3.875 5.4375 C-2.946875 4.2309375 -2.946875 4.2309375 -2 3 Z " fill="#F44D20" transform="translate(413,688)"/>
<path d="M0 0 C4.50802601 1.25805377 7.4912812 2.90407165 11 6 C10.67 6.99 10.34 7.98 10 9 C5.68679932 7.24277009 2.0968916 4.1937832 0 0 Z " fill="#4E25F9" transform="translate(413,722)"/>
<path d="M0 0 C0.103125 0.598125 0.20625 1.19625 0.3125 1.8125 C1.09385053 4.29861534 2.14895416 5.22943442 4 7 C4 7.66 4 8.32 4 9 C5.65 9 7.3 9 9 9 C9 9.33 9 9.66 9 10 C2.9453125 10.1953125 2.9453125 10.1953125 1 10 C-1 8 -1 8 -1.1875 4.4375 C-1 1 -1 1 0 0 Z " fill="#F21CD1" transform="translate(385,711)"/>
<path d="M0 0 C1.32 0 2.64 0 4 0 C4 3.3 4 6.6 4 10 C3.01 10 2.02 10 1 10 C0.67 6.7 0.34 3.4 0 0 Z " fill="#FA0A61" transform="translate(382,688)"/>
<path d="M0 0 C2.70931419 0.15481795 4.46584039 0.48172081 6.4453125 2.40234375 C7.67679642 3.89771708 8.8429837 5.4462924 10 7 C5.61537866 6.49890042 3.1999003 5.01704885 0 2 C0 1.34 0 0.68 0 0 Z " fill="#8A21F9" transform="translate(370,725)"/>
<path d="M0 0 C1.32 0.66 2.64 1.32 4 2 C-2.07439825 6.90153173 -2.07439825 6.90153173 -5.9375 7.3125 C-6.618125 7.209375 -7.29875 7.10625 -8 7 C-5.42215154 4.35247996 -3.08351902 2.05567935 0 0 Z " fill="#C2F90A" transform="translate(435,714)"/>
<path d="M0 0 C1.32 0 2.64 0 4 0 C3.44271087 3.34373475 2.64826111 6.03312999 1 9 C0.34 9 -0.32 9 -1 9 C-0.67 6.03 -0.34 3.06 0 0 Z " fill="#FA220A" transform="translate(401,688)"/>
<path d="M0 0 C0.33 0 0.66 0 1 0 C1 1.65 1 3.3 1 5 C0.67 5 0.34 5 0 5 C0 3.35 0 1.7 0 0 Z M-1 5 C0.5625 6.25 0.5625 6.25 2 8 C1.9375 10.0625 1.9375 10.0625 1 12 C-1.0625 13.25 -1.0625 13.25 -3 14 C-2.125 7.25 -2.125 7.25 -1 5 Z " fill="#0FCAFA" transform="translate(422,749)"/>
<path d="M0 0 C0.66 0.33 1.32 0.66 2 1 C2.144375 1.94875 2.28875 2.8975 2.4375 3.875 C3.0198057 7.11003166 3.48193513 8.02934054 6 10 C4.68 10 3.36 10 2 10 C-0.25 7.5 -0.25 7.5 -2 5 C-1.34 3.35 -0.68 1.7 0 0 Z " fill="#F80CAA" transform="translate(387,710)"/>
<path d="M0 0 C0.66 0.33 1.32 0.66 2 1 C0.68 3.64 -0.64 6.28 -2 9 C-3.32 8.67 -4.64 8.34 -6 8 C-4.02 5.36 -2.04 2.72 0 0 Z " fill="#0A8AFA" transform="translate(410,757)"/>
<path d="M0 0 C-0.11458693 1.43836751 -0.24209116 2.87570966 -0.375 4.3125 C-0.44460938 5.11300781 -0.51421875 5.91351562 -0.5859375 6.73828125 C-1 9 -1 9 -3 12 C-3.33 8.7 -3.66 5.4 -4 2 C-1 0 -1 0 0 0 Z " fill="#1D8CF8" transform="translate(425,729)"/>
<path d="M0 0 C0 0.99 0 1.98 0 3 C-1.98 3.33 -3.96 3.66 -6 4 C-6.33 2.68 -6.66 1.36 -7 0 C-3.86650268 -1.04449911 -3.01031744 -0.93423645 0 0 Z " fill="#8BF611" transform="translate(447,725)"/>
<path d="M0 0 C2.475 0.99 2.475 0.99 5 2 C4.443125 2.268125 3.88625 2.53625 3.3125 2.8125 C0.80287477 4.10122647 -1.59334236 5.52926478 -4 7 C-4 4 -4 4 -2 1.8125 C-1.34 1.214375 -0.68 0.61625 0 0 Z " fill="#D2F613" transform="translate(433,712)"/>
<path d="M0 0 C1.98 0.99 3.96 1.98 6 3 C6 4.65 6 6.3 6 8 C3 6.25 3 6.25 0 4 C0 2.68 0 1.36 0 0 Z " fill="#E60AFA" transform="translate(365,710)"/>
<path d="M0 0 C0.99 0 1.98 0 3 0 C2.67 0.928125 2.34 1.85625 2 2.8125 C0.85032996 5.92029291 0.85032996 5.92029291 1 9 C-0.32 8.67 -1.64 8.34 -3 8 C-2.01 5.36 -1.02 2.72 0 0 Z " fill="#FA350A" transform="translate(405,688)"/>
<path d="M0 0 C0.99 0 1.98 0 3 0 C3 2.97 3 5.94 3 9 C2.01 9 1.02 9 0 9 C0 6.03 0 3.06 0 0 Z " fill="#FA0A3E" transform="translate(389,688)"/>
<path d="M0 0 C-0.33 1.32 -0.66 2.64 -1 4 C-2.32 4.33 -3.64 4.66 -5 5 C-5.33 3.68 -5.66 2.36 -6 1 C-3 0 -3 0 0 0 Z " fill="#E8EAF1" transform="translate(381,1412)"/>
<path d="M0 0 C1.9375 0.3125 1.9375 0.3125 4 1 C4.33 1.99 4.66 2.98 5 4 C2.69 4 0.38 4 -2 4 C-1.34 2.68 -0.68 1.36 0 0 Z " fill="#E2E4ED" transform="translate(404,1406)"/>
<path d="M0 0 C1.32 0.33 2.64 0.66 4 1 C1.69 3.64 -0.62 6.28 -3 9 C-3.66 8.67 -4.32 8.34 -5 8 C-4.54625 7.608125 -4.0925 7.21625 -3.625 6.8125 C-1.72357081 4.69167513 -0.93795972 2.66957765 0 0 Z " fill="#FAA10A" transform="translate(409,711)"/>
<path d="M0 0 C1.32 0 2.64 0 4 0 C4 3.3 4 6.6 4 10 C1.81024227 6.71536341 1.00193437 3.79303725 0 0 Z " fill="#F80C3B" transform="translate(393,710)"/>
<path d="M0 0 C0.99 0 1.98 0 3 0 C2.67 2.97 2.34 5.94 2 9 C1.34 9 0.68 9 0 9 C0 6.03 0 3.06 0 0 Z " fill="#FA0F0A" transform="translate(398,688)"/>
<path d="M0 0 C2.96175123 0.61277612 4.38058783 1.25372522 7 3 C6.67 3.66 6.34 4.32 6 5 C4.02 4.34 2.04 3.68 0 3 C0 2.01 0 1.02 0 0 Z " fill="#D2D6E3" transform="translate(426,1406)"/>
<path d="M0 0 C0.99 0 1.98 0 3 0 C3 1.98 3 3.96 3 6 C2.01 6.33 1.02 6.66 0 7 C0 4.69 0 2.38 0 0 Z " fill="#2D407D" transform="translate(417,1399)"/>
<path d="M0 0 C0.86625 0.3403125 0.86625 0.3403125 1.75 0.6875 C-0.64509338 3.58682357 -2.56245243 4.18918276 -6.25 4.6875 C-6.25 4.0275 -6.25 3.3675 -6.25 2.6875 C-3.02697842 -0.42041367 -3.02697842 -0.42041367 0 0 Z " fill="#A5F90B" transform="translate(442.25,719.3125)"/>
<path d="M0 0 C0.33 0 0.66 0 1 0 C1.22223194 2.74086056 1.34781139 4.43963721 -0.125 6.8125 C-2.77535957 8.49106106 -4.93246424 8.20450238 -8 8 C-8 7.67 -8 7.34 -8 7 C-6.35 7 -4.7 7 -3 7 C-2.67 6.01 -2.34 5.02 -2 4 C-1.34 4 -0.68 4 0 4 C0 2.68 0 1.36 0 0 Z " fill="#1F5AF9" transform="translate(409,736)"/>
<path d="M0 0 C0.33 0 0.66 0 1 0 C1.1953125 6.0546875 1.1953125 6.0546875 1 8 C0.34 8.66 -0.32 9.32 -1 10 C-1.33 8.02 -1.66 6.04 -2 4 C-1.34 4 -0.68 4 0 4 C0 2.68 0 1.36 0 0 Z " fill="#69EE1D" transform="translate(447,729)"/>
<path d="M0 0 C0.99 0.99 1.98 1.98 3 3 C2.67 3.99 2.34 4.98 2 6 C2 5.34 2 4.68 2 4 C1.34 4 0.68 4 0 4 C0 5.98 0 7.96 0 10 C-0.33 10 -0.66 10 -1 10 C-1.125 2.25 -1.125 2.25 0 0 Z " fill="#B051F3" transform="translate(346,714)"/>
<path d="M0 0 C0.66 0.33 1.32 0.66 2 1 C1.67 1.66 1.34 2.32 1 3 C1.66 3 2.32 3 3 3 C2.67 3.66 2.34 4.32 2 5 C0.02 4.34 -1.96 3.68 -4 3 C-2.68 2.01 -1.36 1.02 0 0 Z " fill="#B2ED27" transform="translate(433,719)"/>
</svg>
