<svg width="70" height="70" viewBox="0 0 70 70" fill="none" xmlns="http://www.w3.org/2000/svg">
<path d="M0.666992 8C0.666992 3.58172 4.24871 0 8.66699 0H61.667C66.0853 0 69.667 3.58172 69.667 8V62C69.667 66.4183 66.0853 70 61.667 70H8.66699C4.24871 70 0.666992 66.4183 0.666992 62V8Z" fill="white"/>
<path d="M35.167 24C33.7359 24 32.3635 24.5795 31.3516 25.6109C30.3396 26.6424 29.7712 28.0413 29.7712 29.5C29.7712 30.9587 30.3396 32.3576 31.3516 33.3891C32.3635 34.4205 33.7359 35 35.167 35C36.5981 35 37.9705 34.4205 38.9824 33.3891C39.9943 32.3576 40.5628 30.9587 40.5628 29.5C40.5628 28.0413 39.9943 26.6424 38.9824 25.6109C37.9705 24.5795 36.5981 24 35.167 24ZM35.167 27.1429C35.7803 27.1429 36.3685 27.3912 36.8022 27.8332C37.2359 28.2753 37.4795 28.8748 37.4795 29.5C37.4795 30.1252 37.2359 30.7247 36.8022 31.1668C36.3685 31.6088 35.7803 31.8571 35.167 31.8571C34.5537 31.8571 33.9655 31.6088 33.5318 31.1668C33.0981 30.7247 32.8545 30.1252 32.8545 29.5C32.8545 28.8748 33.0981 28.2753 33.5318 27.8332C33.9655 27.3912 34.5537 27.1429 35.167 27.1429ZM25.1462 28.7143C24.124 28.7143 23.1436 29.1282 22.4209 29.8649C21.6981 30.6017 21.292 31.6009 21.292 32.6429C21.292 34.12 22.1091 35.3929 23.2807 36.0686C23.8357 36.3829 24.4678 36.5714 25.1462 36.5714C25.8245 36.5714 26.4566 36.3829 27.0116 36.0686C27.582 35.7386 28.0599 35.2671 28.4145 34.7014C27.2891 33.2086 26.6878 31.3857 26.6878 29.5C26.6878 29.3586 26.6878 29.2014 26.6878 29.06C26.2253 28.84 25.7012 28.7143 25.1462 28.7143ZM45.1878 28.7143C44.6328 28.7143 44.1087 28.84 43.6462 29.06C43.6462 29.2014 43.6462 29.3586 43.6462 29.5C43.6462 31.3857 43.0449 33.2086 41.9195 34.7014C42.1045 35 42.3049 35.2357 42.5362 35.4714C42.7828 35.7071 43.0295 35.9114 43.3224 36.0686C43.8774 36.3829 44.5095 36.5714 45.1878 36.5714C45.8662 36.5714 46.4982 36.3829 47.0532 36.0686C48.2249 35.3929 49.042 34.12 49.042 32.6429C49.042 31.6009 48.6359 30.6017 47.9131 29.8649C47.1903 29.1282 46.21 28.7143 45.1878 28.7143ZM35.167 38.1429C31.5595 38.1429 24.3753 39.9814 24.3753 43.6429V46H45.9587V43.6429C45.9587 39.9814 38.7745 38.1429 35.167 38.1429ZM23.9282 39.0071C20.9528 39.3686 16.667 40.9086 16.667 43.6429V46H21.292V42.9671C21.292 41.38 22.3557 40.06 23.9282 39.0071ZM46.4057 39.0071C47.9782 40.06 49.042 41.38 49.042 42.9671V46H53.667V43.6429C53.667 40.9086 49.3812 39.3686 46.4057 39.0071ZM35.167 41.2857C37.5257 41.2857 40.162 42.0714 41.6882 42.8571H28.6457C30.172 42.0714 32.8082 41.2857 35.167 41.2857Z" fill="#5F24AC"/>
</svg>
