<svg width="40" height="40" viewBox="0 0 40 40" fill="none" xmlns="http://www.w3.org/2000/svg">
<path d="M6.66675 36.667C6.66675 33.1308 8.07151 29.7394 10.572 27.2389C13.0725 24.7384 16.4639 23.3337 20.0001 23.3337C23.5363 23.3337 26.9277 24.7384 29.4282 27.2389C31.9287 29.7394 33.3334 33.1308 33.3334 36.667H30.0001C30.0001 34.0148 28.9465 31.4713 27.0711 29.5959C25.1958 27.7206 22.6522 26.667 20.0001 26.667C17.3479 26.667 14.8044 27.7206 12.929 29.5959C11.0536 31.4713 10.0001 34.0148 10.0001 36.667H6.66675ZM20.0001 21.667C14.4751 21.667 10.0001 17.192 10.0001 11.667C10.0001 6.14199 14.4751 1.66699 20.0001 1.66699C25.5251 1.66699 30.0001 6.14199 30.0001 11.667C30.0001 17.192 25.5251 21.667 20.0001 21.667ZM20.0001 18.3337C23.6834 18.3337 26.6667 15.3503 26.6667 11.667C26.6667 7.98366 23.6834 5.00033 20.0001 5.00033C16.3167 5.00033 13.3334 7.98366 13.3334 11.667C13.3334 15.3503 16.3167 18.3337 20.0001 18.3337Z" fill="#E2B226"/>
</svg>
